<svg xmlns="http://www.w3.org/2000/svg" viewBox="0 0 302.69 157.03"><g data-name="Layer 2"><g data-name="Notch - Black" fill="#ffffff"><path fill="#ffffff" d="M26.79 156.68H22.2l-4.33-15.24q-.28-1-.7-2.88t-.51-2.61q-.18 1.12-.57 2.9t-.66 2.66l-4.23 15.17H6.66l-3.3-12.8L0 131.12h4.26L7.92 146a64.08 64.08 0 011.22 6.33q.19-1.49.58-3.32t.7-3l4.16-14.93h4.14l4.27 15a56.13 56.13 0 011.29 6.22 45.64 45.64 0 011.26-6.3l3.64-14.86h4.23zM54.7 156.68H40.25v-25.56H54.7v3.53H44.42v7h9.63v3.5h-9.63v8H54.7zM63.45 131.12h7.59q5.28 0 7.63 1.54a5.39 5.39 0 012.35 4.86 5.89 5.89 0 01-1.15 3.72 5.16 5.16 0 01-3.32 1.87v.17a6.6 6.6 0 014 2 6.06 6.06 0 011.27 4 6.56 6.56 0 01-2.4 5.39 10.34 10.34 0 01-6.69 1.95h-9.28zm4.18 10.56h4a6.88 6.88 0 003.83-.83 3.18 3.18 0 001.22-2.85 2.83 2.83 0 00-1.3-2.6 8.14 8.14 0 00-4.13-.8h-3.62zm0 3.39v8.09h4.44a6.54 6.54 0 004-1 3.71 3.71 0 001.29-3.16 3.37 3.37 0 00-1.36-3 7.22 7.22 0 00-4.14-1zM108.66 156.68l-3.18-8.13H95.23l-3.15 8.13h-3L99.18 131h2.5l10.05 25.66zm-4.11-10.8l-3-7.92q-.58-1.5-1.19-3.69a33.36 33.36 0 01-1.07 3.73l-3 7.92zM135.04 149.88a6.27 6.27 0 01-2.45 5.26 10.61 10.61 0 01-6.64 1.89 16.64 16.64 0 01-7-1.17V153a18.33 18.33 0 003.43 1 18 18 0 003.67.38 7.41 7.41 0 004.48-1.13 3.7 3.7 0 001.5-3.14 4 4 0 00-.53-2.18 5 5 0 00-1.78-1.57 24.92 24.92 0 00-3.8-1.62 12.14 12.14 0 01-5.1-3 6.68 6.68 0 01-1.53-4.56 5.67 5.67 0 012.22-4.7 9.23 9.23 0 015.87-1.75 17.31 17.31 0 017 1.4l-.93 2.59a15.84 15.84 0 00-6.15-1.33 6 6 0 00-3.69 1 3.34 3.34 0 00-1.33 2.81 4.31 4.31 0 00.49 2.18 4.61 4.61 0 001.65 1.56 20.5 20.5 0 003.56 1.57 14.08 14.08 0 015.53 3.08 6.05 6.05 0 011.53 4.29zM160.06 149.88a6.27 6.27 0 01-2.45 5.26 10.61 10.61 0 01-6.64 1.89 16.64 16.64 0 01-7-1.17V153a18.33 18.33 0 003.43 1 18 18 0 003.67.38 7.41 7.41 0 004.48-1.13 3.7 3.7 0 001.5-3.14 4 4 0 00-.53-2.18 5 5 0 00-1.78-1.57 24.92 24.92 0 00-3.8-1.62 12.14 12.14 0 01-5.1-3 6.68 6.68 0 01-1.53-4.56 5.67 5.67 0 012.22-4.7 9.23 9.23 0 015.87-1.75 17.31 17.31 0 017 1.4l-.93 2.59a15.84 15.84 0 00-6.15-1.33 6 6 0 00-3.69 1 3.34 3.34 0 00-1.33 2.81 4.31 4.31 0 00.49 2.18 4.61 4.61 0 001.65 1.56 20.5 20.5 0 003.56 1.57 14.08 14.08 0 015.53 3.08 6.05 6.05 0 011.53 4.29zM184.9 156.68h-14.24v-25.56h14.25v2.64h-11.28V142h10.59v2.62h-10.59V154h11.28zM207.25 156.68L198.58 134h-.14q.24 2.69.25 6.4v16.26h-2.75v-25.54h4.48l8.09 21.08h.14l8.14-21.08h4.44v25.56h-3v-16.47q0-2.83.25-6.15h-.14l-8.74 22.62zM233.63 131.12h7.22q5.09 0 7.36 1.52a5.37 5.37 0 012.27 4.81 5.55 5.55 0 01-1.27 3.75 6.1 6.1 0 01-3.7 1.91v.17q5.82 1 5.82 6.12a6.57 6.57 0 01-2.32 5.35 9.86 9.86 0 01-6.48 1.92h-8.92zm3 10.94h4.89a8 8 0 004.53-1 3.81 3.81 0 001.38-3.33 3.37 3.37 0 00-1.54-3.1 9.61 9.61 0 00-4.89-1h-4.37zm0 2.52v9.56h5.33a7.59 7.59 0 004.66-1.2 4.42 4.42 0 001.56-3.75 4 4 0 00-1.6-3.5 8.55 8.55 0 00-4.87-1.12zM262.2 156.68v-25.56h3V154h11.28v2.69zM292.65 143.9l6.82-12.78h3.22l-8.53 15.64v9.91h-3v-9.77l-8.51-15.79h3.25z"/><g><path d="M177.3 67.39l-3.11 13.99h9.68l-3.57-13.99h-3z"/><path d="M163.56 0a5.62 5.62 0 010 .58 12.34 12.34 0 01-12.34 12.34A12.33 12.33 0 01138.9.58a5.62 5.62 0 010-.58H97.43v107.62h107.62V0zm-14.77 96.1l-5.25-25.93h-.09l-5.66 25.93h-7.22L122.39 58h7.13l4.88 25.94h.09L140.37 58h6.67l5.28 26.26h.1L157.98 58h7l-9.09 38.1zm39.26 0l-2.43-8.48h-12.83l-1.87 8.48h-7.13l9.22-38.1h11.25l11.21 38.1z"/></g></g></g></svg>
